<?xml version="1.0" encoding="UTF-8"?>
<svg width="32" height="17" fill="#ebebec" version="1.1" viewBox="0 0 0.96 0.51000001" xml:space="preserve" xmlns="http://www.w3.org/2000/svg">
  <path d="m 0.45782609,0.06652174 c 0,-0.01224621 0.009927,-0.02217391 0.0221739,-0.02217391 0.0122466,0 0.0221739,0.0099277 0.0221739,0.02217391 0,0.01224621 -0.009927,0.02217391 -0.0221739,0.02217391 -0.0122466,0 -0.0221739,-0.0099277 -0.0221739,-0.02217391 z m 0.0443478,0.06273643 c 0.025837,-0.009132 0.0443478,-0.03377242 0.0443478,-0.06273643 C 0.54652174,0.02978289 0.51673996,0 0.48,0 0.4432601,0 0.4134783,0.02978289 0.4134783,0.06652174 c 0,0.02896401 0.018511,0.05360455 0.0443478,0.06273643 v 0.0481331 H 0.3913044 c -0.0122462,0 -0.0221739,0.009928 -0.0221739,0.0221739 0,0.0122462 0.009928,0.0221739 0.0221739,0.0221739 H 0.4578261 V 0.46427961 C 0.38182988,0.45480248 0.3207627,0.39725452 0.30601372,0.32302513 l 0.0252634,0.0252627 c 0.00866,0.008659 0.0226992,0.008659 0.0313588,0 0.008659,-0.008659 0.008659,-0.0226994 0,-0.0313583 l -0.0665217,-0.0665217 c -0.006342,-0.006342 -0.0158792,-0.00824 -0.0241649,-0.004807 -0.008286,0.003433 -0.0136884,0.0115171 -0.0136884,0.0204865 v 0.0221739 C 0.25826087,0.41072296 0.35753681,0.51 0.48,0.51 0.60246209,0.51 0.70173913,0.410723 0.70173913,0.28826087 v -0.0221739 c 0,-0.008969 -0.005402,-0.017054 -0.013688,-0.0204865 -0.008286,-0.003433 -0.0178234,-0.001534 -0.0241651,0.004807 l -0.0665217,0.0665217 c -0.008659,0.008659 -0.008659,0.0226994 0,0.0313583 0.008659,0.008659 0.0226994,0.008659 0.0313584,0 l 0.0252627,-0.0252627 C 0.63923752,0.39725452 0.57817057,0.45480248 0.50217392,0.46427961 V 0.22173913 h 0.0665217 c 0.0122467,0 0.0221739,-0.009928 0.0221739,-0.0221739 0,-0.0122462 -0.009927,-0.0221739 -0.0221739,-0.0221739 h -0.0665217 z"/>
</svg>
