<?xml version="1.0" encoding="UTF-8"?>
<svg width="32" height="17" fill="#ebebec" version="1.1" viewBox="0 0 20.479999 10.879998" xml:space="preserve" xmlns="http://www.w3.org/2000/svg">
  <path d="M 12.094779,6.8828334e-6 C 11.172331,0.00360688 10.358861,0.83926888 10.058613,1.1885509 9.4823702,1.0854289 8.8992372,1.0336159 8.3109592,1.0385769 c -0.448821,0.0038 -0.900721,0.04102 -1.354366,0.111964 -0.514002,-0.41175302 -1.069942,-0.72644702 -1.6651101,-0.84909102 -0.606353,0.313201 -0.424982,0.79344202 -0.289936,1.26394502 0.777435,-0.06389 1.5703941,0.184126 2.3670521,0.561268 0.172551,0.115111 0.344574,0.235573 0.516023,0.361731 0.234103,0.827272 0.348755,1.646369 0.384698,2.462525 -0.573418,0.120968 -1.694048,0.464968 -2.020364,1.34495 l 1.301243,-0.185114 -1.395982,0.702607 c -0.03652,0.643376 0.0971,1.171204 0.282035,1.650044 l 0.887125,-0.938755 -0.667491,1.452666 c 0.285595,0.623095 0.586119,1.1994991 0.591401,1.9026811 0.359962,-0.361547 0.70433,-0.658167 1.017761,-0.9365961 l -0.213892,-1.353677 0.510328,1.085192 c 0.405529,-0.378152 0.740273,-0.7507 0.959563,-1.24378 l -0.833244,-1.287601 1.024192,0.699806 c 0.0048,-0.02216 0.0092,-0.04486 0.01364,-0.06748 0.253786,-1.28241 -0.727596,-2.468336 -1.025639,-2.793366 -0.02733,-0.6832 -0.107394,-1.371936 -0.264121,-2.067768 0.91186,0.740227 1.7933348,1.632336 2.5967448,2.64764 -0.187686,0.658419 -0.291452,1.200992 -0.325121,1.652937 l 0.725597,-0.653871 -0.707614,1.415367 c 0.08149,0.550106 0.32085,0.911423 0.666044,1.184226 l 0.582031,-1.060067 -0.208128,1.304827 c 0.383045,0.210768 0.844659,0.373283 1.341413,0.569123 -0.004,-0.384928 0.0067,-0.673853 0.0064,-1.110296 l 0.403393,1.2789891 c 0.432929,0.185665 0.883358,0.410421 1.325657,0.724885 0.05691,-0.655249 0.05765,-1.3123361 -0.0079,-1.9335491 l -1.233055,-0.473695 1.184962,0.09906 c -0.09118,-0.592549 -0.248366,-1.142932 -0.48155,-1.614881 l -1.385326,-0.312214 1.08161,-0.195909 c -0.487636,-0.675621 -1.196238,-1.096148 -2.171832,-1.095298 -0.129879,1.38e-4 -0.26458,0.0083 -0.404036,0.0237 -1.12991,-1.4421 -2.4139508,-2.648145 -3.7357488,-3.542665 -0.0988,-0.101859 -0.199423,-0.201329 -0.302132,-0.297883 0.893648,-0.102341 1.777557,-0.06628 2.6469508,0.09405 0.165983,0.41428 0.546156,1.188476 1.196445,1.593361 l -0.155028,-1.23016 0.676058,1.448347 c 0.0683,0.01585 0.138399,0.02816 0.211021,0.03514 1.369754,0.13252 2.264366,-1.054922 3.650312,-0.888503 -0.423627,-0.203488 -0.713724,-0.491219 -0.981083,-0.805293 l -1.558175,0.01293 1.18062,-0.471513 C 13.929891,0.92116888 13.564256,0.53017788 12.966102,0.23980588 l -1.117484,0.678194 0.594272,-0.8778 C 12.325804,0.01254988 12.209407,-4.1011717e-4 12.094802,9.8828334e-6 Z"/>
</svg>
