<?xml version="1.0" encoding="UTF-8"?>
<svg width="32" height="17" fill="#ebebec" version="1.1" viewBox="0 0 481 255.53" xml:space="preserve" xmlns="http://www.w3.org/2000/svg">
  <g transform="matrix(.29688 0 0 .29216 97.703 -12.762)">
    <path d="m523.7 218.72 79.3-120.8c10.6-16.199 6.1-37.899-10.1-48.5-16.2-10.6-37.9-6.1-48.5 10.101l-62.601 95.5-0.8-1.3-1 1.5-62.8-95.7c-10.601-16.2-32.3-20.7-48.5-10.101-16.2 10.601-20.7 32.301-10.101 48.5l79.5 121.1-392 597.3h178.3c9.7 0 19.4-1.6 28.5-4.899 143.6-52 198.7-213 218.3-298.2 2.399-10.4 17.1-10.4 19.5 0 19.5 85.1 74.7 246.1 218.3 298.2 9.1 3.3 18.8 4.899 28.5 4.899h178.3z"/>
    <path d="m935.8 848.32h-909.6c-14.5 0-26.2 11.2-26.2 25v20c0 13.8 11.7 25 26.2 25h909.6c14.5 0 26.2-11.2 26.2-25v-20c0-13.799-11.7-25-26.2-25z"/>
  </g>
</svg>
