<?xml version="1.0" encoding="UTF-8"?>
<svg width="32" height="17" fill="#ebebec" version="1.1" viewBox="0 0 21.993 11.684" xml:space="preserve" xmlns="http://www.w3.org/2000/svg">
  <g transform="matrix(.3129 0 0 .3125 4.1148 .0002812)">
    <path d="m6.681 15.542v14.272h2.283c1.186 0 2.149-0.8177 2.149-1.8266v-14.272h-2.284c-1.186 0-2.148 0.8177-2.148 1.8266z" stroke-width=".92195"/>
    <path d="m15.412 15.542v14.272h2.284c1.185 0 2.149-0.8177 2.149-1.8266v-14.272h-2.284c-1.188 0-2.149 0.8177-2.149 1.8266z" stroke-width=".92195"/>
    <path d="m24.142 15.542v14.272h2.284c1.185 0 2.149-0.8177 2.149-1.8266v-14.272h-2.283c-1.188 0-2.15 0.8177-2.15 1.8266z" stroke-width=".92195"/>
    <path d="m32.873 15.542v14.272h2.283c1.186 0 2.149-0.8177 2.149-1.8266v-14.272h-2.283c-1.188 0-2.149 0.8177-2.149 1.8266z" stroke-width=".92195"/>
    <path d="m40.663 10.71c0-0.6936-0.83505-1.7161-1.8655-2.2839l-14.514-7.9917c-1.0304-0.56695-2.7131-0.5814-3.7593-0.0323l-15.308 8.0563c-1.0451 0.5491-1.8928 1.5572-1.8928 2.2508v1.2563h37.34v-1.2554z" stroke-width=".94489"/>
    <path d="m3.323 35.56c0 1.009 0.961 1.8266 2.149 1.8266h33.042c1.186 0 2.149-0.8177 2.149-1.8266v-3.2725h-37.34z" stroke-width=".92195"/>
  </g>
</svg>
