<?xml version="1.0" encoding="UTF-8"?>
<svg width="32" height="17" fill="#ebebec" version="1.1" viewBox="0 0 20.48 10.88" xml:space="preserve" xmlns="http://www.w3.org/2000/svg">
  <g transform="matrix(0.02125,0,0,0.02125,4.7998812,0)">
		<path d="m 150.261,0 c -27.62,0 -50.087,22.467 -50.087,50.087 0,27.62 22.467,50.087 50.087,50.087 27.619,0 50.087,-22.468 50.087,-50.087 C 200.348,22.468 177.88,0 150.261,0 Z m 0,66.783 c -9.22,0 -16.696,-7.475 -16.696,-16.696 0,-9.221 7.475,-16.696 16.696,-16.696 9.221,0 16.696,7.475 16.696,16.696 0,9.221 -7.476,16.696 -16.696,16.696 z"/>
		<circle cx="250.435" cy="83.477997" r="16.695999"/>
		<circle cx="294.957" cy="27.826" r="16.695999"/>
		<path d="m 441.525,166.957 h 20.388 c 9.22,0 16.696,-7.475 16.696,-16.696 0,-9.221 -7.475,-16.696 -16.696,-16.696 H 357.689 l 71.509,-71.509 c 6.52,-6.52 6.52,-17.091 0,-23.611 -6.52,-6.52 -17.091,-6.52 -23.611,0 l -95.121,95.12 H 50.087 c -9.22,0 -16.696,7.475 -16.696,16.696 0,9.221 7.475,16.696 16.696,16.696 h 20.388 c -23.292,35.143 -37.084,77.11 -37.084,122.434 0,45.963 13.945,88.663 37.816,124.129 -21.694,5.497 -37.816,24.989 -37.816,48.393 0,27.662 22.424,50.087 50.087,50.087 23.404,0 42.896,-16.121 48.393,-37.816 C 167.337,498.055 210.037,512 256,512 c 45.961,0 88.658,-13.944 124.122,-37.811 5.498,21.693 24.99,37.811 48.392,37.811 27.662,0 50.087,-22.424 50.087,-50.087 0,-23.402 -16.118,-42.891 -37.809,-48.392 23.87,-35.465 37.817,-78.166 37.817,-124.13 0,-45.324 -13.792,-87.291 -37.084,-122.434 z M 261.831,445.108 c -0.211,0.011 -0.424,0.011 -0.63,0.011 -8.934,0 -16.343,-7.076 -16.673,-16.076 -0.343,-9.217 6.853,-16.967 16.066,-17.304 63.195,-2.337 114.902,-54.332 117.718,-117.494 0.407,-9.217 7.989,-16.663 17.424,-15.935 9.212,0.402 16.343,8.206 15.934,17.414 -3.583,80.412 -69.404,146.407 -149.839,149.384 z"/>
  </g>
</svg>
