<?xml version="1.0" encoding="UTF-8"?>
<svg width="32" height="17" fill="#ebebec" version="1.1" viewBox="0 0 20.48 10.879999" xml:space="preserve" xmlns="http://www.w3.org/2000/svg">
  <g transform="matrix(0.02616589,0,0,0.02616589,3.5415206,-1.258488)">
    <polygon points="214.261,320.576 99.011,429.998 131.198,463.904 248.214,352.811 "/>
    <path d="M 491.495,89.592 C 458.651,54.998 397.417,59.811 358.323,96.92 c -23.766,22.578 -34.141,53.672 -34.219,79.734 -0.063,22.891 -1.906,38.656 -19.672,58.328 l -23.281,22.109 33.938,32.234 21.531,-20.453 c 20.547,-16.719 36.406,-17.75 59.25,-16.625 26.031,1.266 57.641,-7.469 81.422,-30.047 39.062,-37.108 47.062,-98.014 14.203,-132.608 z"/>
    <path d="m 219.526,190.061 c 2.234,-24.5 1.078,-41.719 -34.531,-75.281 0,0 -40.797,-38.734 -63.875,-60.656 -19.297,-18.313 -46.688,9.203 -26.953,27.953 l 66.922,63.516 c 4.266,4.063 4.438,10.813 0.391,15.078 l -1.969,2.078 c -4.047,4.266 -10.813,4.438 -15.078,0.375 L 77.214,99.326 c -11.031,-10.484 -21.375,-6.188 -28.125,0.922 -6.75,7.125 -10.5,17.656 0.531,28.141 l 67.219,63.813 c 4.281,4.047 4.438,10.813 0.391,15.078 l -1.969,2.063 c -4.063,4.281 -10.813,4.453 -15.078,0.406 L 33.277,146.218 c -19.75,-18.75 -45.797,10.031 -26.5,28.328 23.078,21.938 63.875,60.672 63.875,60.672 35.359,33.828 52.609,34.094 76.969,30.578 19.609,-2.828 33.875,-7.625 55.969,13.375 l 194.578,184.734 32.188,-33.891 -194.578,-184.75 c -22.111,-20.985 -18.049,-35.469 -16.252,-55.203 z"/>
  </g>
</svg>
