<?xml version="1.0" encoding="UTF-8"?>
<svg width="32" height="17" fill="#ebebec" version="1.1" viewBox="0 0 38.722999 20.571591" xml:space="preserve" xmlns="http://www.w3.org/2000/svg">
  <g transform="matrix(0.02125002,0,0,0.02127197,9.0757036,-0.01063599)">
    <path d="m 192.474,436.9 c -36.8,36 -59.6,86.3 -59.6,141.899 0,55.5 22.8,105.801 59.6,141.801 8.101,8 21.2,8 29.301,0 36.8,-36 59.6,-86.301 59.6,-141.801 0,-55.6 -22.9,-105.8 -59.6,-141.8 -8.101,-8.099 -21.2,-8.099 -29.301,-0.099 z"/>
    <path d="m 389.775,687.101 c -55.5,0 -105.801,22.8 -141.801,59.6 -8,8.1 -8,21.2 0,29.3 36.101,36.8 86.301,59.601 141.801,59.601 55.6,0 105.8,-22.801 141.899,-59.601 8,-8.2 8,-21.2 0,-29.3 -36.199,-36.801 -86.399,-59.6 -141.899,-59.6 z"/>
    <path d="m 335.975,293.4 c -36.801,36 -59.601,86.3 -59.601,141.899 0,55.5 22.8,105.801 59.601,141.801 8.1,8 21.199,8 29.3,0 36.8,-36 59.6,-86.301 59.6,-141.801 0,-55.6 -22.899,-105.8 -59.6,-141.8 -8.101,-8.099 -21.2,-8.099 -29.3,-0.099 z"/>
    <path d="m 675.075,603.2 c -36.1,-36.8 -86.3,-59.6 -141.8,-59.6 -55.5,0 -105.8,22.8 -141.8,59.6 -8,8.1 -8,21.2 0,29.3 36.1,36.8 86.3,59.601 141.8,59.601 55.6,0 105.8,-22.801 141.899,-59.601 7.901,-8.1 7.901,-21.1 -0.099,-29.3 z"/>
    <path d="m 508.775,150 c -8.101,-8 -21.2,-8 -29.3,0 -36.801,36 -59.601,86.301 -59.601,141.9 0,55.5 22.8,105.8 59.601,141.8 8.1,8 21.199,8 29.3,0 36.8,-36 59.6,-86.3 59.6,-141.8 0,-55.7 -22.8,-105.9 -59.6,-141.9 z"/>
    <path d="m 676.674,400.101 c -55.5,0 -105.8,22.8 -141.8,59.6 -8,8.1 -8,21.2 0,29.3 36.101,36.8 86.3,59.601 141.8,59.601 55.601,0 105.801,-22.801 141.9,-59.601 8,-8.2 8,-21.2 0,-29.3 -36.099,-36.701 -86.299,-59.6 -141.9,-59.6 z"/>
    <path d="m 652.275,6.5 c -8.101,-8 -21.2,-8 -29.3,0 -36.801,36 -59.601,86.301 -59.601,141.9 0,55.5 22.8,105.8 59.601,141.8 8.1,8 21.199,8 29.3,0 36.8,-36 59.6,-86.3 59.6,-141.8 0,-55.599 -22.9,-105.9 -59.6,-141.9 z"/>
    <path d="m 820.174,256.601 c -55.5,0 -105.8,22.8 -141.8,59.6 -8,8.101 -8,21.2 0,29.3 36.101,36.801 86.3,59.601 141.8,59.601 55.601,0 105.801,-22.8 141.9,-59.601 8,-8.199 8,-21.199 0,-29.3 -36.099,-36.701 -86.299,-59.501 -141.9,-59.6 z"/>
    <path d="m 801.575,61.801 c -39.3,39.3 -58.6,90.899 -58.1,142.5 0.1,11.399 9.3,20.6 20.699,20.699 51.5,0.5 103.2,-18.8 142.5,-58.1 39.301,-39.3 58.601,-91 58.101,-142.5 -0.101,-11.4 -9.3,-20.6 -20.7,-20.7 -51.5,-0.5 -103.2,18.8 -142.5,58.101 z"/>
    <path d="m 21.474,958.8 c 11.7,11.7 30.7,11.7 42.4,0 l 137.7,-137.699 c 11.7,-11.7 11.7,-30.7 0,-42.4 l -12.7,-12.7 c -11.7,-11.7 -30.7,-11.7 -42.4,0 L 8.775,903.601 c -11.7,11.699 -11.7,30.699 0,42.399 z"/>
  </g>
</svg>
