<?xml version="1.0" encoding="UTF-8"?>
<svg width="32" height="17" fill="#ebebec" version="1.1" viewBox="0 0 8 4.25" xmlns="http://www.w3.org/2000/svg">
  <g transform="matrix(.29167 0 0 .28333 1.6667 -.28333)">
    <path d="m8 13.11c2.34-1.41 3.6-2.48 3.6-4.11v-5.2c-0.93-0.21-2.17-0.4-3.6-0.4zm0-12.11c-3.43 0-6 1-6 1v7c0 4.29 4.84 5.92 6 7 1.16-1.06 6-2.76 6-7v-7s-2.47-1-6-1zm4.6 8c0 2.31-1.93 3.67-4.08 4.97-0.18 0.11-0.36 0.21-0.52 0.31-0.18-0.11-0.36-0.22-0.57-0.35-1.7-1.02-4.03-2.42-4.03-4.93v-5.98c0.96-0.26 2.62-0.62 4.6-0.62 2.01 0 3.65 0.35 4.6 0.62z"/>
  </g>
</svg>
