<?xml version="1.0" encoding="UTF-8"?>
<svg width="32" height="17" fill="#000000" version="1.1" viewBox="0 0 16 8.5" xmlns="http://www.w3.org/2000/svg">
  <g transform="matrix(.26562 0 0 .26562 3.75 0)">
    <g fill="none" fill-rule="evenodd">
      <path d="m0 0h32v32h-32z"/>
      <path d="m21.469 0c3.0276 0 5.5809 2.2556 5.9542 5.2601l1.7396 14c0.40162 3.2321-1.8468 6.1827-5.0463 6.6708l2.3858 4.1312c0.27614 0.47829 0.11227 1.0899-0.36603 1.366-0.47829 0.27614-1.0899 0.11227-1.366-0.36602l-1.1913-2.0622h-15.156l-1.1907 2.0622c-0.27614 0.47829-0.88773 0.64217-1.366 0.36602-0.47829-0.27614-0.64217-0.88773-0.36603-1.366l2.385-4.1302c-2.8835-0.43709-5.0933-2.9264-5.0933-5.9319 0-0.24733 0.015293-0.49443 0.045792-0.73987l1.7396-14c0.37334-3.0045 2.9266-5.2601 5.9542-5.2601zm0.37806 26h-11.692l-0.577 1h12.847zm-11.347-7c-0.82843 0-1.5 0.67157-1.5 1.5s0.67157 1.5 1.5 1.5c0.82843 0 1.5-0.67157 1.5-1.5s-0.67157-1.5-1.5-1.5zm11 0c-0.82843 0-1.5 0.67157-1.5 1.5s0.67157 1.5 1.5 1.5 1.5-0.67157 1.5-1.5-0.67157-1.5-1.5-1.5zm-0.40495-11h-10.19c-1.0072 0-1.8572 0.74892-1.9841 1.7481l-0.63492 5c-0.010611 0.083562-0.015933 0.16771-0.015933 0.25194 0 1.1046 0.89543 2 2 2h11.46c0.08423 0 0.16838-0.0053 0.25194-0.01593 1.0958-0.13914 1.8713-1.1402 1.7321-2.236l-0.63492-5c-0.12687-0.99914-0.97691-1.7481-1.9841-1.7481zm-2.0951-4h-6c-0.55228 0-1 0.44772-1 1 0 0.55228 0.44772 1 1 1h6c0.55228 0 1-0.44772 1-1 0-0.55228-0.44772-1-1-1z" fill="#ebebec"/>
    </g>
  </g>
</svg>
