<?xml version="1.0" encoding="UTF-8"?>
<svg enable-background="new 0 0 64 64" fill="#000000" version="1.0" viewBox="0 0 32 17" xml:space="preserve" xmlns="http://www.w3.org/2000/svg">
  <g transform="matrix(.26594 0 0 .26562 7.4998 0)">
    <path d="m62.79 29.172-28-28c-0.781-0.781-1.805-1.172-2.828-1.172s-2.047 0.391-2.828 1.172l-28 28c-1.562 1.566-1.484 4.016 0.078 5.578 1.566 1.57 3.855 1.801 5.422 0.234l1.366-1.367v26.383c0 2.211 1.789 4 4 4h14.495v-18.635h11.01v18.635h14.495c2.211 0 4-1.789 4-4v-26.305l1.195 1.195c1.562 1.562 3.949 1.422 5.516-0.141 1.563-1.561 1.645-4.015 0.079-5.577z" fill="#ebebec"/>
  </g>
</svg>
