<?xml version="1.0" encoding="UTF-8"?>
<svg enable-background="new 0 0 64 64" fill="#000000" version="1.0" viewBox="0 0 32 17" xml:space="preserve" xmlns="http://www.w3.org/2000/svg">
  <g transform="matrix(.27084 0 0 .26562 7.3333 .00053123)">
    <path d="m55.639 46.344-19.998-44.002c-0.648-1.426-2.07-2.344-3.642-2.344-1.57 0-2.992 0.918-3.641 2.344l-20 44.001c-0.562 1.238-0.457 2.68 0.277 3.82 0.739 1.146 2.005 1.837 3.364 1.837h16v8c0 2.211 1.789 4 4 4 2.212 0 4.001-1.789 4.001-4v-8h15.998c1.359 0 2.625-0.691 3.367-1.836 0.735-1.141 0.836-2.582 0.274-3.82z" fill="#ebebec"/>
  </g>
</svg>
